<?xml version="1.0" encoding="UTF-8" standalone="no"?>
<!-- Created with Inkscape (http://www.inkscape.org/) -->

<svg
   xmlns:dc="http://purl.org/dc/elements/1.1/"
   xmlns:cc="http://creativecommons.org/ns#"
   xmlns:rdf="http://www.w3.org/1999/02/22-rdf-syntax-ns#"
   xmlns:svg="http://www.w3.org/2000/svg"
   xmlns="http://www.w3.org/2000/svg"
   xmlns:sodipodi="http://sodipodi.sourceforge.net/DTD/sodipodi-0.dtd"
   xmlns:inkscape="http://www.inkscape.org/namespaces/inkscape"
   version="1.1"
   id="svg80"
   width="150"
   height="150"
   viewBox="0 0 150 150"
   sodipodi:docname="ZiplineLogo.svg"
   inkscape:export-filename="ZiplineLogo.png"
   inkscape:export-xdpi="96"
   inkscape:export-ydpi="96"
   inkscape:version="0.92.2 5c3e80d, 2017-08-06">
  <metadata
     id="metadata86">
    <rdf:RDF>
      <cc:Work
         rdf:about="">
        <dc:format>image/svg+xml</dc:format>
        <dc:type
           rdf:resource="http://purl.org/dc/dcmitype/StillImage" />
        <dc:title></dc:title>
      </cc:Work>
    </rdf:RDF>
  </metadata>
  <defs
     id="defs84" />
  <sodipodi:namedview
     pagecolor="#ffffff"
     bordercolor="#666666"
     borderopacity="1"
     objecttolerance="10"
     gridtolerance="10"
     guidetolerance="10"
     inkscape:pageopacity="0"
     inkscape:pageshadow="2"
     inkscape:window-width="1270"
     inkscape:window-height="803"
     id="namedview82"
     showgrid="false"
     inkscape:zoom="4.0133333"
     inkscape:cx="55.066445"
     inkscape:cy="75"
     inkscape:window-x="21"
     inkscape:window-y="0"
     inkscape:window-maximized="0"
     inkscape:current-layer="svg80" />
  <g
     id="g92"
     transform="translate(0.49833925,0.24916945)">
    <path
       style="fill:#fafaf9"
       d="M 1.5445721e-8,74.75083 V -0.24916954 H 75 150 V 74.75083 v 75 H 75 1.5445721e-8 Z"
       id="path108"
       inkscape:connector-curvature="0" />
    <path
       style="fill:#f0cecb"
       d="M 1.5445721e-8,74.75083 V -0.24916954 H 75 150 V 74.75083 v 75 H 75 1.5445721e-8 Z M 110,115.81596 c -0.825,-0.48072 -9.825,-4.55935 -20,-9.06361 C 79.825,102.24808 70.9375,98.09999 70.25,97.53436 69.333409,96.780248 69,91.648606 69,78.295052 69,68.279063 68.715453,59.799617 68.367674,59.451838 67.838147,58.92231 30,114.99762 30,116.31189 c 0,0.24142 18.3375,0.42526 40.75,0.40853 23.745352,-0.0177 40.12406,-0.39514 39.25,-0.90446 z M 101.27307,61.976123 120.04614,33.25083 99.456102,32.980338 c -11.324519,-0.148771 -29.654978,-0.148771 -40.734352,0 L 38.577433,33.25083 57.538716,41.625742 C 67.967422,46.231944 77.5125,50.629818 78.75,51.398795 80.955173,52.769081 81,53.175017 81,71.773883 c 0,10.437321 0.3375,18.965829 0.75,18.95224 0.4125,-0.01359 9.197881,-12.951089 19.52307,-28.75 z"
       id="path106"
       inkscape:connector-curvature="0" />
    <path
       style="fill:#e6a3a2"
       d="M 1.5445721e-8,74.75083 V -0.24916954 H 75 150 V 74.75083 v 75 H 75 1.5445721e-8 Z M 113.25527,116.6061 c -0.6296,-0.6296 -10.5071,-5.30135 -21.949999,-10.38166 L 70.5,96.987518 70.242868,78.119174 C 69.960229,57.379103 69.720307,55.585397 67.528133,57.823289 65.311356,60.086297 29,115.60986 29,116.73652 c 0,0.66991 14.498301,1.01431 42.7,1.01431 32.06574,0 42.41491,-0.28509 41.55527,-1.14473 z M 101.54438,63.297904 C 112.24497,47.098795 121,33.373795 121,32.797904 121,32.085059 107.56687,31.75083 78.916667,31.75083 c -31.168966,0 -41.984328,0.297017 -41.70159,1.145232 0.20996,0.629878 9.80996,5.304047 21.333334,10.387042 L 79.5,52.524914 79.757132,71.387872 c 0.247701,18.171137 0.510044,21.362958 1.755868,21.362958 0.316673,0 9.330796,-13.253817 20.03138,-29.452926 z"
       id="path104"
       inkscape:connector-curvature="0" />
    <path
       style="fill:#dd7b82"
       d="M 1.5445721e-8,74.75083 V -0.24916954 H 75 150 V 74.75083 v 75 H 75 1.5445721e-8 Z M 114.42997,117.86414 C 115.35914,116.36072 113.02943,115.1028 91.975646,105.74 80.7637,100.75395 71.344974,96.430387 71.045145,96.132085 70.745315,95.833783 70.275,86.738468 70,75.920274 69.69137,63.779104 69.11726,56.261366 68.5,56.278357 c -1.597098,0.04396 -40.664813,59.600593 -40.086001,61.108953 0.430454,1.12174 8.054304,1.36352 42.995599,1.36352 23.617978,0 42.715642,-0.39362 43.020372,-0.88669 z M 103.41589,61.837336 c 10.25298,-15.627422 18.4789,-28.902422 18.27981,-29.5 -0.37826,-1.135428 -82.768444,-2.156305 -85.622936,-1.060934 -2.732295,1.04848 1.088468,3.224278 21.895509,12.468765 11.257549,5.001686 20.813159,9.636604 21.234687,10.299818 0.421528,0.663215 0.773305,9.568345 0.781727,19.789178 0.0084,10.220834 0.327813,18.895834 0.709757,19.277778 1.191798,1.191798 3.552098,-2.057003 22.721446,-31.274605 z"
       id="path102"
       inkscape:connector-curvature="0" />
    <path
       style="fill:#db7475"
       d="M 1.5445721e-8,74.75083 V -0.24916954 H 75 150 V 74.75083 v 75 H 75 1.5445721e-8 Z M 113.87188,118.85117 c 0.75454,-0.47797 1.16854,-1.47908 0.92,-2.22471 -0.24854,-0.74562 -10.09089,-5.65507 -21.871887,-10.90989 L 71.5,96.162346 71,76.206588 C 70.535898,57.683592 70.36801,56.25083 68.661614,56.25083 c -1.304323,0 -7.477123,8.569928 -21.248438,29.5 -10.675529,16.225 -19.410755,30.25 -19.411614,31.16667 -8.59e-4,0.91666 0.560938,1.89364 1.248438,2.17105 2.208767,0.89126 83.19883,0.66407 84.62188,-0.23738 z M 102.07244,64.50083 c 10.60707,-16.0875 19.47043,-30.199449 19.69636,-31.359887 0.30173,-1.549765 -0.21037,-2.276197 -1.92901,-2.736346 -3.02849,-0.810849 -79.613953,-0.820875 -82.638214,-0.01082 -5.157563,1.381469 -1.469521,3.86922 19.803784,13.358546 L 78.5,53.340381 78.757132,72.295606 c 0.141423,10.425373 0.464799,19.517724 0.718615,20.205224 0.253816,0.6875 1.102653,1.25 1.886306,1.25 0.783652,0 10.103328,-13.1625 20.710387,-29.25 z"
       id="path100"
       inkscape:connector-curvature="0" />
    <path
       style="fill:#db4d51"
       d="M 1.5445721e-8,74.75083 V -0.24916954 H 75 150 V 74.75083 v 75 H 75 1.5445721e-8 Z M 115.5,117.26124 c 0,-1.62127 -3.60984,-3.59681 -19.5,-10.67164 C 85.275,101.81448 75.2625,97.218223 73.75,96.375704 L 71,94.843851 V 75.356357 c 0,-10.718121 -0.409391,-19.740511 -0.909758,-20.049754 -0.500367,-0.309244 -1.512867,-0.329292 -2.25,-0.04455 -1.118723,0.43214 -39.628654,57.829657 -40.684572,60.638727 -0.189381,0.50382 -0.08919,1.58092 0.222657,2.39357 0.490339,1.2778 6.484965,1.44232 44.344329,1.21701 C 114.66968,119.25577 115.5,119.21309 115.5,117.26124 Z M 82.624688,93.985517 c 2.276376,-1.487012 40.462042,-60.545869 40.160402,-62.11304 -0.28112,-1.46058 -4.57018,-1.647554 -43.18308,-1.882487 -57.688899,-0.350996 -57.203166,-0.827355 -17.107458,16.777331 7.697004,3.379497 14.559504,6.613408 15.25,7.186469 C 78.672091,54.723579 79,60.013389 79,74.206608 c 0,20.556959 0.260187,21.976725 3.624688,19.778909 z"
       id="path98"
       inkscape:connector-curvature="0" />
    <path
       style="fill:#e13b41"
       d="M 1.5445721e-8,74.75083 V -0.24916954 H 75 150 V 74.75083 v 75 H 75 1.5445721e-8 Z M 116.5,117.75083 c 0,-2.87615 -4.60205,-5.40909 -29.5,-16.23666 L 72.5,95.208434 72,75.229632 71.5,55.25083 68.890714,54.947986 c -2.349801,-0.272727 -3.552233,1.119521 -12.091265,14 C 30.828263,108.12354 26,115.64774 26,116.9448 c 0,3.74042 1.214636,3.83366 46.460251,3.56628 L 116.5,120.25083 Z M 83.062475,94.717394 c 1.062046,-0.568389 2.834391,-2.705889 3.938545,-4.75 1.104153,-2.04411 2.859348,-4.841564 3.900433,-6.216564 1.041085,-1.375 8.05862,-11.95 15.594527,-23.5 7.5359,-11.55 14.55717,-22.219278 15.60283,-23.709507 1.04565,-1.49023 1.90119,-3.31273 1.90119,-4.05 0,-3.613285 -1.53067,-3.740493 -45.00887,-3.740493 -35.540636,0 -42.930878,0.239114 -44.55,1.441431 -1.548304,1.149729 -1.718896,1.807431 -0.842974,3.25 1.185208,1.951936 2.232013,2.56714 10.491552,6.165855 C 47.065369,40.904624 55.8,44.749845 63.5,48.153053 l 14,6.18765 0.272203,19.379353 c 0.171804,12.231467 0.678016,19.868329 1.372445,20.705064 1.323458,1.59467 1.464604,1.605199 3.917827,0.292274 z"
       id="path96"
       inkscape:connector-curvature="0" />
    <path
       style="fill:#e43a3b"
       d="M 1.5445721e-8,74.75083 V -0.24916954 H 75 150 V 74.75083 v 75 H 75 1.5445721e-8 Z M 32.569098,127.63903 c 0.846356,-1.36944 -1.398094,-2.89105 -3.228414,-2.18869 C 28.603308,125.7333 28,126.59166 28,127.35782 c 0,1.65532 3.583541,1.87587 4.569098,0.28121 z m 72.864522,0.21402 c 2.67207,-1.04639 0.90147,-1.72233 -4.34062,-1.65708 -2.588343,0.0322 -4.58294,0.5707 -4.833335,1.30486 -0.479328,1.40539 5.862785,1.64888 9.173955,0.35222 z M 23.4,125.98713 c -0.055,-0.67996 -0.1675,-2.37542 -0.25,-3.76768 -0.162989,-2.75059 -2.196507,-4.04849 -4.786119,-3.05476 -1.506053,0.57793 -1.501783,0.77628 0.05372,2.49509 0.929412,1.02699 1.762508,2.83195 1.851325,4.01103 0.100998,1.34077 0.736381,2.03306 1.696281,1.8482 C 22.809343,127.35645 23.455,126.6671 23.4,125.98713 Z m 91.32917,1.15953 c -0.3323,-0.33229 -1.1948,-0.36781 -1.91667,-0.0789 -0.79773,0.31922 -0.56078,0.55618 0.60417,0.60416 1.05416,0.0434 1.64479,-0.19292 1.3125,-0.52522 z m 3.80596,-6.45267 c 1.97248,-3.19154 -5.1586,-10.94316 -10.06714,-10.94316 -0.86446,0 -3.23591,-0.88823 -5.26987,-1.97385 -2.03397,-1.08562 -9.66062,-4.51945 -16.94812,-7.63073 L 73,94.489364 V 79.227086 c 0,-12.171043 0.28401,-15.371263 1.402234,-15.800366 0.771229,-0.295948 1.671229,-0.269093 2,0.05968 C 76.731005,63.815169 77,70.72702 77,78.846068 c 0,12.08658 0.284793,15.046697 1.571429,16.333333 3.021009,3.021009 6.686465,0.944857 9.524906,-5.395006 1.304511,-2.913719 2.407099,-4.033565 3.971404,-4.033565 1.71793,0 2.05028,-0.440693 1.607957,-2.132137 -0.376406,-1.439381 0.383393,-3.307623 2.338479,-5.75 1.592825,-1.989825 3.980222,-5.664404 5.305325,-8.165731 1.32511,-2.501328 5.24633,-8.539787 8.71383,-13.418799 3.46751,-4.879011 7.39262,-10.93247 8.72248,-13.452131 1.32985,-2.519661 3.27883,-5.510205 4.33105,-6.645653 2.69811,-2.911505 2.46245,-6.276204 -0.51897,-7.409737 -1.33766,-0.508578 -20.80676,-0.997724 -43.264678,-1.086993 -35.32716,-0.140423 -41.346147,0.05228 -44.641687,1.429245 -3.274952,1.368362 -3.708535,1.909908 -3.091862,3.861744 0.870497,2.755219 4.050319,5.127005 7.430337,5.542189 1.375,0.168898 3.671941,1.154295 5.104313,2.189771 1.432373,1.035477 4.417453,2.370913 6.633512,2.967636 2.216059,0.596722 4.586718,1.75672 5.268131,2.577773 0.681414,0.821053 2.135064,1.492823 3.230334,1.492823 1.095271,0 3.852671,0.956573 6.127555,2.125718 2.274885,1.169146 4.917549,2.519146 5.872586,3 0.955037,0.480855 2.362437,0.874282 3.127555,0.874282 2.266215,0 3.490142,2.277119 2.553073,4.75 -1.233561,3.25531 -3.481886,2.761631 -4.554225,-1 -1.460699,-5.12395 -5.159561,-4.956711 -9.855212,0.445591 -2.057753,2.367425 -4.369815,5.766909 -5.137916,7.554409 -0.905544,2.107355 -2.094994,3.25 -3.383126,3.25 -1.264811,0 -1.98658,0.670824 -1.98658,1.846362 0,1.769646 -2.717471,8.112552 -3.921665,9.153638 -0.844295,0.729936 -2.946477,4.187854 -3.976547,6.541097 -0.49139,1.122604 -1.615316,2.640204 -2.497612,3.372445 C 40.721879,90.396613 40,91.570399 40,92.272786 c 0,1.292518 -4.759036,8.750084 -9.805679,15.365824 -5.907694,7.74451 -6.438998,11.27653 -1.966487,13.07286 3.318081,1.33267 89.483166,1.31599 90.307296,-0.0175 z m 7.75462,-3.94316 c -0.60199,-2.30202 -2.53975,-2.60862 -4.15863,-0.65799 -1.38658,1.67072 -0.47956,2.65799 2.44193,2.65799 1.74738,0 2.12474,-0.43964 1.7167,-2 z M 112,102.83416 c 0,-0.50416 -0.5625,-1.11287 -1.25,-1.35269 -1.74864,-0.60996 -3.85095,0.297 -3.18524,1.37414 0.72749,1.17711 4.43524,1.15918 4.43524,-0.0215 z M 34.393011,96.169043 c 0.952349,-2.481783 0.723874,-3.418213 -0.833994,-3.418213 -1.89319,0 -2.714265,1.431855 -1.955273,3.409758 0.779455,2.031226 2.011624,2.034961 2.789267,0.0085 z m 62.959296,0.820759 c 0.751114,-1.215327 -2.109935,-4.5068 -3.285772,-3.780093 -1.456963,0.900453 -1.345265,3.261984 0.183465,3.87884 1.885515,0.760822 2.584821,0.738563 3.102307,-0.09875 z M 38,80.75083 c 0,-0.55 -0.423442,-1 -0.940983,-1 -0.517541,0 -1.219098,0.45 -1.559017,1 -0.339919,0.55 0.08352,1 0.940983,1 0.857459,0 1.559017,-0.45 1.559017,-1 z m 70.63837,-1.5 c 0.31659,-0.825 0.28494,-2.257475 -0.0703,-3.183277 -0.58358,-1.520795 -0.84694,-1.482267 -2.72834,0.399134 -2.16557,2.165543 -1.79434,4.284143 0.75067,4.284143 0.8098,0 1.73139,-0.675 2.04797,-1.5 z m 0.33939,-14.25 c 0.0347,-1.949641 -1.30674,-1.422098 -3.28122,1.290411 -2.41249,3.314228 -1.04814,5.561097 1.42431,2.345621 1.00907,-1.312318 1.84468,-2.948532 1.85691,-3.636032 z M 50,65.309847 C 50,64.517306 49.581094,63.609966 49.069098,63.293535 47.880209,62.558761 46.684495,64.431315 47.5,65.75083 48.419555,67.238701 50,66.959922 50,65.309847 Z M 39,47.25083 c 0,-1.589225 -3.512322,-2.098097 -4.413797,-0.63948 -0.738471,1.194871 0.400838,2.13948 2.580464,2.13948 1.008333,0 1.833333,-0.675 1.833333,-1.5 z m 85,-4.559017 c 0,-0.517541 -0.45,-0.940983 -1,-0.940983 -0.55,0 -1,0.701558 -1,1.559017 0,0.857459 0.45,1.280902 1,0.940983 0.55,-0.339919 1,-1.041476 1,-1.559017 z M 47.5,20.75083 C 47.844632,20.193204 47.096585,19.757604 45.809017,19.766143 43.951379,19.778462 43.793228,19.970954 45,20.75083 c 1.860736,1.2025 1.756814,1.2025 2.5,0 z m 47.812408,-0.747648 c -8.353176,-0.167074 -22.303176,-0.16742 -31,-7.69e-4 C 55.615584,20.169065 62.45,20.305762 79.5,20.306185 c 17.05,4.23e-4 24.16558,-0.135928 15.812408,-0.303003 z M 127,19.75083 c 0,-0.55 -1.09844,-1 -2.44098,-1 -1.34254,0 -2.7191,0.45 -3.05902,1 -0.36058,0.583423 0.65628,1 2.44098,1 1.68246,0 3.05902,-0.45 3.05902,-1 z"
       id="path94"
       inkscape:connector-curvature="0" />
  </g>
</svg>
